HIERARCHY
ROOT Hips
{
	OFFSET 0.00000 0.00000 0.00000
	CHANNELS 6 Xposition Yposition Zposition Zrotation Yrotation Xrotation 
	JOINT LHipJoint
	{
		OFFSET 0 0 0
		CHANNELS 3 Zrotation Yrotation Xrotation
		JOINT LeftHip
		{
			OFFSET 1.62067 -1.77917 0.70989
			CHANNELS 3 Zrotation Yrotation Xrotation
			JOINT LeftKnee
			{
				OFFSET 2.34532 -6.44371 0.00000
				CHANNELS 3 Zrotation Yrotation Xrotation
				JOINT LeftAnkle
				{
					OFFSET 2.74224 -7.53425 0.00000
					CHANNELS 3 Zrotation Yrotation Xrotation
					JOINT LeftToe
					{
						OFFSET 0.17032 -0.46794 2.08086
						CHANNELS 3 Zrotation Yrotation Xrotation
						End Site
						{
							OFFSET 0.00000 -0.00000 1.07476
						}
					}
				}
			}
		}
	}
	JOINT RHipJoint
	{
		OFFSET 0 0 0
		CHANNELS 3 Zrotation Yrotation Xrotation
		JOINT RightHip
		{
			OFFSET -1.55811 -1.77917 0.70989
			CHANNELS 3 Zrotation Yrotation Xrotation
			JOINT RightKnee
			{
				OFFSET -2.33243 -6.40830 0.00000
				CHANNELS 3 Zrotation Yrotation Xrotation
				JOINT RightAnkle
				{
					OFFSET -2.78798 -7.65993 0.00000
					CHANNELS 3 Zrotation Yrotation Xrotation
					JOINT RightToe
					{
						OFFSET -0.22707 -0.62388 2.04059
						CHANNELS 3 Zrotation Yrotation Xrotation
						End Site
						{
							OFFSET -0.00000 -0.00000 1.07030
						}
					}
				}
			}
		}
	}
	JOINT lowerback
	{
		OFFSET 0 0 0
		CHANNELS 3 Zrotation Yrotation Xrotation
		JOINT Chest
		{
			OFFSET 0.02203 1.91565 0.07161
			CHANNELS 3 Zrotation Yrotation Xrotation
			JOINT Chest2
			{
				OFFSET 0.01740 1.90525 0.11636
				CHANNELS 3 Zrotation Yrotation Xrotation
				JOINT lowerneck
				{
					OFFSET 0 0 0
					CHANNELS 3 Zrotation Yrotation Xrotation
					JOINT Neck
					{
						OFFSET -0.10841 1.83566 0.05067
						CHANNELS 3 Zrotation Yrotation Xrotation
						JOINT Head
						{
							OFFSET 0.06601 1.74760 -0.50505
							CHANNELS 3 Zrotation Yrotation Xrotation
							End Site
							{
								OFFSET 0.03102 1.85215 -0.17697
							}
						}
					}
				}
				JOINT LeftCollar
				{
					OFFSET 0 0 0
					CHANNELS 3 Zrotation Yrotation Xrotation
					JOINT LeftShoulder
					{
						OFFSET 2.87059 1.35470 0.16111
CHANNELS 3 Zrotation Xrotation Yrotation
						JOINT LeftElbow
						{
OFFSET 0 -5.435920 0.000000
CHANNELS 3 Zrotation Xrotation Yrotation
							JOINT LeftWrist
							{
OFFSET 0 -3.254600 0.000000
CHANNELS 3 Zrotation Xrotation Yrotation
								JOINT lhand
								{
									OFFSET 0 0 0
CHANNELS 3 Zrotation Xrotation Yrotation
									JOINT LFingers
									{
OFFSET 0 -0.498240 0.000000
CHANNELS 3 Zrotation Xrotation Yrotation
										End Site
										{
OFFSET 0 -0.401700 0.000000
										}
									}
								}
								JOINT LThumb
								{
OFFSET 0 0.000000 0.000000
CHANNELS 3 Zrotation Xrotation Yrotation
									End Site
									{
OFFSET 0 -0.407830 0.407830
									}
								}
							}
						}
					}
				}
				JOINT RightCollar
				{
					OFFSET 0 0 0
					CHANNELS 3 Zrotation Yrotation Xrotation
					JOINT RightShoulder
					{
						OFFSET -2.86643 1.23488 0.45957
CHANNELS 3 Zrotation Xrotation Yrotation
						JOINT RightElbow
						{
OFFSET 0 -5.338300 0.000000
CHANNELS 3 Zrotation Xrotation Yrotation
							JOINT RightWrist
							{
OFFSET 0 -3.231480 0.000000
CHANNELS 3 Zrotation Xrotation Yrotation
								JOINT rhand
								{
									OFFSET 0 0 0
CHANNELS 3 Zrotation Xrotation Yrotation
									JOINT RFingers
									{
OFFSET 0 -0.463640 0.000000
CHANNELS 3 Zrotation Xrotation Yrotation
										End Site
										{
OFFSET 0 -0.373800 0.000000
										}
									}
								}
								JOINT RThumb
								{
OFFSET 0 0.000000 0.000000
CHANNELS 3 Zrotation Xrotation Yrotation
									End Site
									{
OFFSET 0 -0.379510 0.379510
									}
								}
							}
						}
					}
				}
			}
		}
	}
}
MOTION
Frames: 11
Frame Time: 0.008333333333333333
4.611272 15.850557 1.783872 -4.107906 -6.799959 21.163117 0.000000 0.000000 0.000000 -19.856615 -12.116519 -55.647270 9.797839 17.294602 58.810402 1.750074 -4.698119 -23.949986 0.400625 4.063533 11.255350 0.000000 0.000000 0.000000 6.131407 18.875193 -72.733697 -3.556522 -11.545655 34.143205 -3.938141 -12.552316 36.009622 -0.041436 -1.312727 3.609669 1.422574 -0.620343 12.390172 -0.218159 -0.680662 5.550957 -0.938191 -0.322430 -1.155485 -1.272732 -0.684051 -17.926971 -1.844306 0.095851 39.151802 -0.607135 -0.460339 17.399936 0.000000 0.000000 0.000000 57.206087 1.809798 -91.179522 49.953315 -52.976539 26.136892 31.115195 -76.418301 20.503144 0.000000 0.000000 0.000000 -7.125000 0.000000 0.000000 1.637791 6.392759 1.445860 0.000000 0.000000 0.000000 -57.963270 12.841058 80.050638 -58.360136 -55.856849 -32.980226 -11.643408 -12.882163 42.581169 0.000000 0.000000 0.000000 7.125000 0.000000 0.000000 37.693064 69.786813 -23.463903
4.611672 15.854147 1.781424 -4.423297 -6.421215 21.432794 0.000000 0.000000 0.000000 -19.318235 -12.531375 -55.866796 9.803131 17.297629 58.828281 1.741241 -4.582452 -23.903497 0.421105 4.164829 11.540774 0.000000 0.000000 0.000000 6.534778 18.616283 -72.899538 -3.542822 -11.525864 34.074509 -3.989718 -12.051123 36.253168 -0.024716 -1.012280 2.782602 1.947436 -0.696745 12.434996 -0.134973 -0.717315 5.397025 -1.141417 -0.336147 -1.345202 -1.553391 -0.733523 -17.934305 -1.434063 -0.039360 39.306582 -0.398490 -0.499353 17.487449 0.000000 0.000000 0.000000 57.687085 2.363350 -91.749998 49.523994 -52.801628 25.794533 29.243882 -74.240225 18.678641 0.000000 0.000000 0.000000 -7.125000 0.000000 0.000000 0.692850 8.802224 0.578759 0.000000 0.000000 0.000000 -58.394462 13.390586 80.283283 -58.377444 -55.861839 -32.994531 -11.522626 -13.116368 42.857268 0.000000 0.000000 0.000000 7.125000 0.000000 0.000000 38.346638 69.951948 -24.045622
4.605984 15.851696 1.779628 -4.516047 -6.202894 21.573767 0.000000 0.000000 0.000000 -19.074696 -12.791151 -55.985325 9.806912 17.299819 58.841045 1.746376 -4.643027 -23.931256 0.455351 4.328787 12.003579 0.000000 0.000000 0.000000 6.530248 18.551240 -73.004434 -3.545413 -11.529534 34.087295 -3.965457 -12.310024 36.137855 -0.031143 -1.137504 3.127171 2.132090 -0.674206 12.286798 -0.114418 -0.670656 5.454961 -1.231790 -0.308829 -1.204362 -1.525025 -0.779881 -17.884585 -1.445307 -0.113269 39.315385 -0.422516 -0.524634 17.479088 0.000000 0.000000 0.000000 58.189208 2.669611 -92.264270 49.057137 -52.608072 25.423122 30.674743 -75.303392 20.366902 0.000000 0.000000 0.000000 -7.125000 0.000000 0.000000 1.379186 6.637992 1.211746 0.000000 0.000000 0.000000 -58.717729 13.850948 80.325306 -58.153936 -55.797563 -32.809638 -11.938948 -13.150946 42.868438 0.000000 0.000000 0.000000 7.125000 0.000000 0.000000 37.936678 70.097666 -23.881559
4.598822 15.853203 1.781259 -4.266980 -6.215482 21.611734 0.000000 0.000000 0.000000 -19.277577 -12.961451 -55.965043 9.780371 17.284503 58.751701 1.737388 -4.644752 -23.866967 0.463512 4.366787 12.110995 0.000000 0.000000 0.000000 6.096142 18.583859 -73.088645 -3.555301 -11.543862 34.136805 -3.934842 -12.106087 35.991452 -0.019647 -0.895346 2.461001 1.770970 -0.663919 12.210205 -0.164613 -0.700528 5.558447 -1.077872 -0.326238 -1.053517 -1.439094 -0.813289 -18.242425 -1.595170 -0.121541 39.600353 -0.515140 -0.538701 17.733754 0.000000 0.000000 0.000000 58.490128 3.199354 -92.381942 48.554876 -52.395495 25.024753 29.778996 -74.787613 20.408395 0.000000 0.000000 0.000000 -7.125000 0.000000 0.000000 0.808309 6.776964 0.708684 0.000000 0.000000 0.000000 -59.016829 14.093086 80.323060 -57.670266 -55.656256 -32.409986 -12.690297 -12.218636 42.762449 0.000000 0.000000 0.000000 7.125000 0.000000 0.000000 36.944304 70.267294 -23.334898
4.597267 15.853441 1.776930 -4.306389 -6.002874 21.693781 0.000000 0.000000 0.000000 -19.104365 -13.237752 -56.020805 9.770415 17.278709 58.718201 1.731354 -4.511416 -23.842637 0.459048 4.346228 12.052842 0.000000 0.000000 0.000000 6.129882 18.462219 -73.162639 -3.549114 -11.534893 34.105921 -3.937860 -11.927634 36.006119 -0.011302 -0.686665 1.886980 1.914948 -0.747680 12.327448 -0.140431 -0.790138 5.474221 -1.120589 -0.370469 -1.208842 -1.372776 -0.790702 -18.135199 -1.812042 -0.023543 39.636460 -0.607264 -0.520478 17.727226 0.000000 0.000000 0.000000 58.775001 3.880722 -92.465128 48.072569 -52.187930 24.643113 28.393961 -73.785697 19.583559 0.000000 0.000000 0.000000 -7.125000 0.000000 0.000000 0.035764 7.960731 0.030435 0.000000 0.000000 0.000000 -59.484647 14.438632 80.802922 -57.235172 -55.527037 -32.050988 -12.157474 -12.343962 42.589935 0.000000 0.000000 0.000000 7.125000 0.000000 0.000000 37.170815 69.961978 -23.247826
4.597023 15.854123 1.773187 -4.387483 -5.804033 21.766021 0.000000 0.000000 0.000000 -18.925659 -13.465065 -56.019626 9.766751 17.276563 58.705903 1.727075 -4.327633 -23.839245 0.451186 4.308921 11.947513 0.000000 0.000000 0.000000 6.156527 18.405620 -73.219532 -3.545254 -11.529344 34.086721 -3.932515 -11.977338 35.980341 -0.013063 -0.736952 2.025301 2.173462 -0.798381 12.324691 -0.148049 -0.827547 5.445262 -1.268984 -0.385630 -1.241655 -1.283338 -0.750077 -17.756728 -1.982027 0.064725 39.418193 -0.676741 -0.492760 17.505453 0.000000 0.000000 0.000000 59.307127 4.461046 -92.838166 47.958431 -52.138181 24.552947 30.022574 -75.202617 21.229844 0.000000 0.000000 0.000000 -7.125000 0.000000 0.000000 0.827539 5.799159 0.763531 0.000000 0.000000 0.000000 -59.846768 14.809413 81.127888 -56.814797 -55.399492 -31.704706 -11.173435 -12.843374 42.858643 0.000000 0.000000 0.000000 7.125000 0.000000 0.000000 38.710593 69.837853 -24.202740
4.591738 15.851190 1.773382 -4.215743 -5.817511 21.712048 0.000000 0.000000 0.000000 -19.114449 -13.506801 -55.918352 9.764050 17.274987 58.696782 1.736873 -4.189427 -23.930561 0.396955 4.045156 11.203699 0.000000 0.000000 0.000000 5.785171 18.483574 -73.251596 -3.570051 -11.565164 34.210481 -3.919819 -11.866323 35.920019 -0.011510 -0.693812 1.906689 2.008687 -0.789990 12.323675 -0.254181 -0.838768 5.599932 -1.285943 -0.389834 -1.079705 -1.213162 -0.725767 -17.745339 -1.958502 0.062703 39.056724 -0.672107 -0.476649 17.300257 0.000000 0.000000 0.000000 59.826804 4.851102 -93.100968 47.719185 -52.033147 24.364181 28.248739 -73.379822 19.371508 0.000000 0.000000 0.000000 -7.125000 0.000000 0.000000 -0.033126 8.219579 -0.025876 0.000000 0.000000 0.000000 -59.971886 15.010241 81.222511 -56.136062 -55.188941 -31.146748 -11.373190 -12.581555 42.556252 0.000000 0.000000 0.000000 7.125000 0.000000 0.000000 37.926902 69.679154 -23.537414
4.579843 15.841891 1.766477 -4.069716 -5.899468 21.641517 0.000000 0.000000 0.000000 -19.249862 -13.452870 -55.966192 9.766292 17.276342 58.704472 1.726153 -4.060519 -23.874152 0.390722 4.013466 11.114661 0.000000 0.000000 0.000000 5.109198 18.914087 -73.214166 -3.587575 -11.590329 34.297719 -3.906424 -12.309466 35.856184 -0.023508 -0.987335 2.713943 1.934502 -0.634368 10.955224 -0.448758 -0.688928 6.882368 -1.483903 -0.284949 1.004702 -1.131795 -0.882332 -18.778226 -1.729529 -0.274107 38.219528 -0.641011 -0.559904 17.101592 0.000000 0.000000 0.000000 60.669585 3.852038 -91.916021 47.733198 -52.039375 24.375237 28.879255 -74.251792 20.457950 0.000000 0.000000 0.000000 -7.125000 0.000000 0.000000 0.233517 6.904421 0.203752 0.000000 0.000000 0.000000 -59.591110 14.466661 79.683262 -55.456441 -54.972355 -30.589424 -12.098920 -11.976781 42.482296 0.000000 0.000000 0.000000 7.125000 0.000000 0.000000 37.027944 69.862155 -23.070802
4.576577 15.851951 1.764311 -4.123019 -5.803294 21.698162 0.000000 0.000000 0.000000 -19.167472 -13.480439 -55.971477 9.740555 17.261421 58.617819 1.726511 -4.213308 -23.852344 0.431155 4.213933 11.679189 0.000000 0.000000 0.000000 4.985637 19.025166 -73.131374 -3.564971 -11.557836 34.185067 -3.896073 -12.429927 35.807416 -0.031886 -1.153154 3.170269 2.083849 -0.613909 10.871843 -0.494751 -0.652013 6.970758 -1.620342 -0.258853 1.142708 -1.125279 -0.928032 -18.987876 -1.645959 -0.371733 38.285102 -0.626357 -0.586090 17.189725 0.000000 0.000000 0.000000 61.152471 4.080072 -91.805995 47.568971 -51.966739 24.245846 28.454350 -73.997829 20.401029 0.000000 0.000000 0.000000 -7.125000 0.000000 0.000000 -0.028217 7.050332 -0.024518 0.000000 0.000000 0.000000 -59.883051 14.747633 79.839873 -54.908755 -54.793103 -30.141494 -11.132371 -12.511796 42.486651 0.000000 0.000000 0.000000 7.125000 0.000000 0.000000 38.046912 69.549235 -23.512730
4.577963 15.867221 1.764416 -4.230424 -5.728645 21.743464 0.000000 0.000000 0.000000 -19.093452 -13.423565 -55.932451 9.716902 17.247590 58.537987 1.723482 -4.284561 -23.819652 0.412173 4.121309 11.418201 0.000000 0.000000 0.000000 5.258611 18.907777 -73.048783 -3.542290 -11.525004 34.071592 -3.921943 -11.843320 35.930284 -0.028949 -1.098843 3.020930 2.327628 -0.578254 10.710324 -0.490485 -0.588774 7.007806 -1.760478 -0.217934 1.270977 -1.208361 -1.002948 -18.905971 -1.668286 -0.441867 38.308693 -0.634623 -0.628264 17.181995 0.000000 0.000000 0.000000 61.474456 4.463983 -91.655964 47.267050 -51.831912 24.008136 29.056927 -74.186664 20.901570 0.000000 0.000000 0.000000 -7.125000 0.000000 0.000000 0.286796 6.380393 0.253226 0.000000 0.000000 0.000000 -59.848379 15.369433 79.824370 -54.041308 -54.500771 -29.433889 -10.596177 -12.068939 42.328842 0.000000 0.000000 0.000000 7.125000 0.000000 0.000000 38.309246 69.258067 -23.452267
4.565844 15.851150 1.757583 -4.101502 -5.828023 21.715281 0.000000 0.000000 0.000000 -19.177917 -13.375075 -56.084713 9.757014 17.270948 58.673096 1.731958 -4.357611 -23.869475 0.393348 4.027216 11.153178 0.000000 0.000000 0.000000 4.821366 19.197947 -73.104410 -3.549495 -11.535489 34.107815 -3.874321 -12.367568 35.702828 -0.040999 -1.306221 3.591847 2.149129 -0.541952 11.514599 -0.587985 -0.533839 6.547768 -1.759812 -0.208516 0.356191 -0.949052 -0.925862 -18.379754 -2.069260 -0.268785 38.577207 -0.828284 -0.578673 17.193786 0.000000 0.000000 0.000000 62.005096 5.375042 -92.146417 47.094133 -51.754057 23.872362 27.593717 -72.749483 20.198836 0.000000 0.000000 0.000000 -7.125000 0.000000 0.000000 -0.549868 7.435854 -0.473758 0.000000 0.000000 0.000000 -60.955278 15.594309 81.346953 -53.968988 -54.475778 -29.375091 -10.749077 -12.473518 42.537091 0.000000 0.000000 0.000000 7.125000 0.000000 0.000000 38.538247 69.462042 -23.775310
